<svg width="16" height="16" viewBox="0 0 16 16" fill="none" xmlns="http://www.w3.org/2000/svg">
<g clip-path="url(#clip0_157_107)">
<path d="M1.9404 2.76406C2.0404 2.64006 2.1444 2.52006 2.2484 2.40006C2.2524 2.39606 2.2644 2.39206 2.2684 2.38806C2.2764 2.37606 2.2924 2.36806 2.3044 2.35606L2.3124 2.34406C2.3844 2.27606 2.4644 2.20406 2.5524 2.13606C2.8724 1.89606 3.2004 1.71206 3.5484 1.58806C4.6684 1.19606 5.9124 1.43606 6.8884 2.36006C8.2524 3.63606 8.1284 5.69606 7.0404 7.06406C5.6644 9.10406 3.3044 11.9481 6.5724 14.4961C7.1604 14.9561 7.5964 15.3321 9.4484 15.8681C8.2364 16.0921 7.1124 16.0201 5.8644 15.7041C4.9804 15.2041 3.5884 14.1361 3.1164 12.6921C2.4004 10.5041 4.3764 7.22806 5.3284 5.96806C6.6364 4.22406 4.5204 2.33606 2.9564 4.44406C2.1484 5.54406 0.720402 8.65206 1.2164 10.9601C1.5044 12.2681 1.8924 13.2201 3.4244 14.5321C3.1404 14.3641 2.8644 14.1761 2.5964 13.9601C-0.959598 10.6441 -0.547598 5.51606 1.9404 2.76406Z" fill="url(#paint0_linear_157_107)"/>
<path d="M14.0598 13.236C13.9598 13.36 13.8558 13.48 13.7518 13.6C13.7478 13.604 13.7358 13.608 13.7318 13.612C13.7238 13.624 13.7078 13.632 13.6958 13.644L13.6878 13.656C13.6158 13.724 13.5358 13.796 13.4478 13.86C13.1278 14.1 12.7998 14.284 12.4518 14.408C11.3318 14.8 10.0878 14.56 9.11176 13.636C7.74776 12.36 7.87176 10.3 8.95976 8.93203C10.3358 6.89203 12.6958 4.04803 9.42776 1.50003C8.83976 1.04003 8.40376 0.664027 6.55176 0.128027C7.76376 -0.0959725 8.88776 -0.0239725 10.1358 0.292027C11.0198 0.792027 12.4118 1.86003 12.8838 3.30403C13.5998 5.49203 11.6238 8.76803 10.6718 10.028C9.36376 11.772 11.4798 13.66 13.0438 11.552C13.8598 10.452 15.2878 7.34403 14.7918 5.03603C14.5038 3.72803 14.1158 2.77603 12.5838 1.46403C12.8678 1.63203 13.1438 1.82003 13.4118 2.03603C16.9598 5.35603 16.5478 10.484 14.0598 13.236Z" fill="url(#paint1_linear_157_107)"/>
</g>
<defs>
<linearGradient id="paint0_linear_157_107" x1="0.000401995" y1="8.70553" x2="16.0004" y2="8.70553" gradientUnits="userSpaceOnUse">
<stop stop-color="#0082FA"/>
<stop offset="1" stop-color="#00F2FE"/>
</linearGradient>
<linearGradient id="paint1_linear_157_107" x1="-0.00024128" y1="7.29456" x2="15.9998" y2="7.29456" gradientUnits="userSpaceOnUse">
<stop stop-color="#0082FA"/>
<stop offset="1" stop-color="#00F2FE"/>
</linearGradient>
<clipPath id="clip0_157_107">
<rect width="16" height="16" fill="white"/>
</clipPath>
</defs>
</svg>
