<svg width="21" height="20" viewBox="0 0 21 20" fill="none" xmlns="http://www.w3.org/2000/svg">
<path d="M12.1667 5C11.7065 5 11.3334 5.3731 11.3334 5.83333C11.3334 6.29357 11.7065 6.66667 12.1667 6.66667H17.1667C17.6269 6.66667 18 6.29357 18 5.83333C18 5.3731 17.6269 5 17.1667 5H12.1667Z" fill="#3440F1"/>
<path d="M12.1667 13.3333C11.7065 13.3333 11.3334 13.7064 11.3334 14.1667C11.3334 14.6269 11.7065 15 12.1667 15H17.1667C17.6269 15 18 14.6269 18 14.1667C18 13.7064 17.6269 13.3333 17.1667 13.3333H12.1667Z" fill="#3440F1"/>
<path fill-rule="evenodd" clip-rule="evenodd" d="M6.35999 2.5H6.30668C5.94116 2.49999 5.62572 2.49998 5.36468 2.51779C5.08983 2.53655 4.8149 2.5778 4.54329 2.6903C3.93072 2.94404 3.44404 3.43072 3.1903 4.04329C3.0778 4.3149 3.03655 4.58983 3.01779 4.86468C2.99998 5.12572 2.99999 5.44111 3 5.80664V5.85999C2.99999 6.22551 2.99998 6.54095 3.01779 6.80199C3.03655 7.07684 3.0778 7.35177 3.1903 7.62338C3.44404 8.23595 3.93072 8.72263 4.54329 8.97637C4.8149 9.08887 5.08983 9.13012 5.36468 9.14888C5.62573 9.16669 5.94114 9.16668 6.30668 9.16667H6.35999C6.72553 9.16668 7.04094 9.16669 7.30199 9.14888C7.57685 9.13012 7.85177 9.08887 8.12338 8.97637C8.73595 8.72263 9.22263 8.23595 9.47637 7.62338C9.58887 7.35177 9.63012 7.07684 9.64888 6.80199C9.66669 6.54094 9.66668 6.22554 9.66667 5.86001V5.8067C9.66668 5.44116 9.66669 5.12573 9.64888 4.86468C9.63012 4.58983 9.58887 4.3149 9.47637 4.04329C9.22263 3.43072 8.73595 2.94404 8.12338 2.6903C7.85177 2.5778 7.57685 2.53655 7.30199 2.51779C7.04095 2.49998 6.72551 2.49999 6.35999 2.5ZM5.1811 4.2301C5.21578 4.21574 5.28814 4.19356 5.47813 4.18059C5.67562 4.16712 5.93365 4.16667 6.33334 4.16667C6.73302 4.16667 6.99105 4.16712 7.18854 4.18059C7.37853 4.19356 7.45089 4.21574 7.48557 4.2301C7.68976 4.31468 7.85199 4.47691 7.93657 4.6811C7.95093 4.71578 7.97311 4.78814 7.98608 4.97813C7.99955 5.17562 8 5.43365 8 5.83333C8 6.23302 7.99955 6.49105 7.98608 6.68853C7.97311 6.87853 7.95093 6.95089 7.93657 6.98557C7.85199 7.18976 7.68976 7.35199 7.48557 7.43657C7.45089 7.45093 7.37853 7.47311 7.18854 7.48607C6.99105 7.49955 6.73302 7.5 6.33334 7.5C5.93365 7.5 5.67562 7.49955 5.47813 7.48607C5.28814 7.47311 5.21578 7.45093 5.1811 7.43657C4.97691 7.35199 4.81468 7.18976 4.7301 6.98557C4.71574 6.95089 4.69356 6.87853 4.68059 6.68853C4.66712 6.49105 4.66667 6.23302 4.66667 5.83333C4.66667 5.43365 4.66712 5.17562 4.68059 4.97813C4.69356 4.78814 4.71574 4.71578 4.7301 4.6811C4.81468 4.47691 4.97691 4.31468 5.1811 4.2301Z" fill="#3440F1"/>
<path fill-rule="evenodd" clip-rule="evenodd" d="M6.35999 10.8333H6.30668C5.94116 10.8333 5.62572 10.8333 5.36468 10.8511C5.08983 10.8699 4.8149 10.9111 4.54329 11.0236C3.93072 11.2774 3.44404 11.7641 3.1903 12.3766C3.0778 12.6482 3.03655 12.9232 3.01779 13.198C2.99998 13.4591 2.99999 13.7744 3 14.14V14.1933C2.99999 14.5588 2.99998 14.8743 3.01779 15.1353C3.03655 15.4102 3.0778 15.6851 3.1903 15.9567C3.44404 16.5693 3.93072 17.056 4.54329 17.3097C4.8149 17.4222 5.08983 17.4635 5.36468 17.4822C5.62573 17.5 5.94114 17.5 6.30668 17.5H6.35999C6.72553 17.5 7.04094 17.5 7.30199 17.4822C7.57685 17.4635 7.85177 17.4222 8.12338 17.3097C8.73595 17.056 9.22263 16.5693 9.47637 15.9567C9.58887 15.6851 9.63012 15.4102 9.64888 15.1353C9.66669 14.8743 9.66668 14.5589 9.66667 14.1933V14.14C9.66668 13.7745 9.66669 13.4591 9.64888 13.198C9.63012 12.9232 9.58887 12.6482 9.47637 12.3766C9.22263 11.7641 8.73595 11.2774 8.12338 11.0236C7.85177 10.9111 7.57685 10.8699 7.30199 10.8511C7.04095 10.8333 6.72551 10.8333 6.35999 10.8333ZM5.1811 12.5634C5.21578 12.5491 5.28814 12.5269 5.47813 12.5139C5.67562 12.5005 5.93365 12.5 6.33334 12.5C6.73302 12.5 6.99105 12.5005 7.18854 12.5139C7.37853 12.5269 7.45089 12.5491 7.48557 12.5634C7.68976 12.648 7.85199 12.8102 7.93657 13.0144C7.95093 13.0491 7.97311 13.1215 7.98608 13.3115C7.99955 13.509 8 13.767 8 14.1667C8 14.5664 7.99955 14.8244 7.98608 15.0219C7.97311 15.2119 7.95093 15.2842 7.93657 15.3189C7.85199 15.5231 7.68976 15.6853 7.48557 15.7699C7.45089 15.7843 7.37853 15.8064 7.18854 15.8194C6.99105 15.8329 6.73302 15.8333 6.33334 15.8333C5.93365 15.8333 5.67562 15.8329 5.47813 15.8194C5.28814 15.8064 5.21578 15.7843 5.1811 15.7699C4.97691 15.6853 4.81468 15.5231 4.7301 15.3189C4.71574 15.2842 4.69356 15.2119 4.68059 15.0219C4.66712 14.8244 4.66667 14.5664 4.66667 14.1667C4.66667 13.767 4.66712 13.509 4.68059 13.3115C4.69356 13.1215 4.71574 13.0491 4.7301 13.0144C4.81468 12.8102 4.97691 12.648 5.1811 12.5634Z" fill="#3440F1"/>
</svg>