<svg width="21" height="20" viewBox="0 0 21 20" fill="none" xmlns="http://www.w3.org/2000/svg">
<path fill-rule="evenodd" clip-rule="evenodd" d="M9.66671 6.66683C9.66671 6.20659 10.0398 5.8335 10.5 5.8335H13.8334C14.2936 5.8335 14.6667 6.20659 14.6667 6.66683C14.6667 7.12707 14.2936 7.50016 13.8334 7.50016H10.5C10.0398 7.50016 9.66671 7.12707 9.66671 6.66683ZM10.5 9.16683C10.0398 9.16683 9.66671 9.53993 9.66671 10.0002C9.66671 10.4604 10.0398 10.8335 10.5 10.8335H13.8334C14.2936 10.8335 14.6667 10.4604 14.6667 10.0002C14.6667 9.53993 14.2936 9.16683 13.8334 9.16683H10.5ZM10.5 12.5002C10.0398 12.5002 9.66671 12.8733 9.66671 13.3335C9.66671 13.7937 10.0398 14.1668 10.5 14.1668H13.8334C14.2936 14.1668 14.6667 13.7937 14.6667 13.3335C14.6667 12.8733 14.2936 12.5002 13.8334 12.5002H10.5ZM7.16671 14.1668C7.62694 14.1668 8.00004 13.7937 8.00004 13.3335C8.00004 12.8733 7.62694 12.5002 7.16671 12.5002C6.70647 12.5002 6.33337 12.8733 6.33337 13.3335C6.33337 13.7937 6.70647 14.1668 7.16671 14.1668ZM8.00004 10.0002C8.00004 10.4604 7.62694 10.8335 7.16671 10.8335C6.70647 10.8335 6.33337 10.4604 6.33337 10.0002C6.33337 9.53993 6.70647 9.16683 7.16671 9.16683C7.62694 9.16683 8.00004 9.53993 8.00004 10.0002ZM7.16671 7.50016C7.62694 7.50016 8.00004 7.12707 8.00004 6.66683C8.00004 6.20659 7.62694 5.8335 7.16671 5.8335C6.70647 5.8335 6.33337 6.20659 6.33337 6.66683C6.33337 7.12707 6.70647 7.50016 7.16671 7.50016Z" fill="#3440F1"/>
<path fill-rule="evenodd" clip-rule="evenodd" d="M9.13099 2.5H11.869C12.7722 2.49999 13.5006 2.49999 14.0905 2.54818C14.6979 2.59781 15.2314 2.70265 15.725 2.95414C16.509 3.35361 17.1464 3.99103 17.5459 4.77504C17.7973 5.26862 17.9022 5.80211 17.9518 6.40948C18 6.99938 18 7.72783 18 8.63097V11.369C18 12.2722 18 13.0006 17.9518 13.5905C17.9022 14.1979 17.7973 14.7314 17.5459 15.225C17.1464 16.009 16.509 16.6464 15.725 17.0459C15.2314 17.2973 14.6979 17.4022 14.0905 17.4518C13.5006 17.5 12.7722 17.5 11.869 17.5H9.13097C8.22783 17.5 7.49937 17.5 6.90948 17.4518C6.30211 17.4022 5.76862 17.2973 5.27504 17.0459C4.49103 16.6464 3.85361 16.009 3.45414 15.225C3.20265 14.7314 3.09781 14.1979 3.04818 13.5905C2.99999 13.0006 2.99999 12.2722 3 11.369V8.63099C2.99999 7.72784 2.99999 6.99938 3.04818 6.40948C3.09781 5.80211 3.20265 5.26862 3.45414 4.77504C3.85361 3.99103 4.49103 3.35361 5.27504 2.95414C5.76862 2.70265 6.30211 2.59781 6.90948 2.54818C7.49938 2.49999 8.22784 2.49999 9.13099 2.5ZM7.0452 4.20931C6.54089 4.25052 6.25115 4.32733 6.03169 4.43915C5.56129 4.67883 5.17883 5.06129 4.93915 5.53169C4.82733 5.75115 4.75052 6.04089 4.70931 6.5452C4.66732 7.05924 4.66667 7.7195 4.66667 8.66667V11.3333C4.66667 12.2805 4.66732 12.9408 4.70931 13.4548C4.75052 13.9591 4.82733 14.2488 4.93915 14.4683C5.17883 14.9387 5.56129 15.3212 6.03169 15.5609C6.25115 15.6727 6.54089 15.7495 7.0452 15.7907C7.55924 15.8327 8.2195 15.8333 9.16667 15.8333H11.8333C12.7805 15.8333 13.4408 15.8327 13.9548 15.7907C14.4591 15.7495 14.7488 15.6727 14.9683 15.5609C15.4387 15.3212 15.8212 14.9387 16.0609 14.4683C16.1727 14.2488 16.2495 13.9591 16.2907 13.4548C16.3327 12.9408 16.3333 12.2805 16.3333 11.3333V8.66667C16.3333 7.7195 16.3327 7.05924 16.2907 6.5452C16.2495 6.04089 16.1727 5.75115 16.0609 5.53169C15.8212 5.06129 15.4387 4.67883 14.9683 4.43915C14.7488 4.32733 14.4591 4.25052 13.9548 4.20931C13.4408 4.16732 12.7805 4.16667 11.8333 4.16667H9.16667C8.2195 4.16667 7.55924 4.16732 7.0452 4.20931Z" fill="#3440F1"/>
</svg>
