<svg width="21" height="20" viewBox="0 0 21 20" fill="none" xmlns="http://www.w3.org/2000/svg">
<path fill-rule="evenodd" clip-rule="evenodd" d="M10.5001 5.00016C6.45408 5.00016 4.57497 8.14398 3.91415 9.62802C3.80764 9.86721 3.80764 10.1331 3.91415 10.3723C4.57497 11.8563 6.45408 15.0002 10.5001 15.0002C14.5462 15.0002 16.4251 11.8562 17.0858 10.3722C17.1923 10.1331 17.1923 9.86724 17.0858 9.62809C16.4251 8.14411 14.5462 5.00016 10.5001 5.00016ZM2.3916 8.95006C3.11604 7.32313 5.40948 3.3335 10.5001 3.3335C15.5909 3.3335 17.8841 7.32335 18.6084 8.95021C18.907 9.62086 18.907 10.3795 18.6084 11.0501C17.8841 12.677 15.5909 16.6668 10.5001 16.6668C5.40948 16.6668 3.11605 12.6772 2.3916 11.0503C2.09294 10.3795 2.09294 9.62079 2.3916 8.95006Z" fill="#3440F1"/>
<path fill-rule="evenodd" clip-rule="evenodd" d="M10.5 6.6665C8.65901 6.6665 7.16663 8.15889 7.16663 9.99984C7.16663 11.8408 8.65901 13.3332 10.5 13.3332C12.3409 13.3332 13.8333 11.8408 13.8333 9.99984C13.8333 8.15889 12.3409 6.6665 10.5 6.6665ZM10.4293 8.33464C10.4528 8.33366 10.4763 8.33317 10.5 8.33317C11.4204 8.33317 12.1666 9.07936 12.1666 9.99984C12.1666 10.9203 11.4204 11.6665 10.5 11.6665C9.57948 11.6665 8.83329 10.9203 8.83329 9.99984C8.83329 9.97618 8.83379 9.95264 8.83476 9.92923C8.96467 9.97496 9.10441 9.99984 9.24996 9.99984C9.94032 9.99984 10.5 9.44019 10.5 8.74984C10.5 8.60429 10.4751 8.46455 10.4293 8.33464Z" fill="#3440F1"/>
</svg>
