<svg width="21" height="20" viewBox="0 0 21 20" fill="none" xmlns="http://www.w3.org/2000/svg">
<path fill-rule="evenodd" clip-rule="evenodd" d="M12.7427 1.75866C12.3571 1.66609 11.9573 1.66628 11.4281 1.66653L8.63229 1.66656C7.96148 1.66655 7.40785 1.66654 6.95685 1.70338C6.48844 1.74166 6.05785 1.82379 5.65341 2.02987C5.0262 2.34945 4.51626 2.85938 4.19669 3.48659C3.99061 3.89103 3.90847 4.32162 3.8702 4.79004C3.83336 5.24103 3.83336 5.79466 3.83337 6.46546V13.5343C3.83336 14.2051 3.83336 14.7588 3.8702 15.2097C3.90847 15.6782 3.99061 16.1087 4.19669 16.5132C4.51626 17.1404 5.0262 17.6503 5.65341 17.9699C6.05785 18.176 6.48844 18.2581 6.95685 18.2964C7.40785 18.3332 7.96147 18.3332 8.63227 18.3332H12.3678C13.0386 18.3332 13.5922 18.3332 14.0432 18.2964C14.5116 18.2581 14.9422 18.176 15.3467 17.9699C15.9739 17.6503 16.4838 17.1404 16.8034 16.5132C17.0095 16.1087 17.0916 15.6782 17.1299 15.2097C17.1667 14.7587 17.1667 14.2051 17.1667 13.5343L17.1667 7.40518C17.167 6.87602 17.1672 6.47618 17.0746 6.09061C16.993 5.75049 16.8583 5.42534 16.6755 5.1271C16.4683 4.78899 16.1855 4.50641 15.8111 4.13241L14.7009 3.02215C14.3269 2.6478 14.0443 2.36494 13.7062 2.15776C13.4079 1.97499 13.0828 1.84031 12.7427 1.75866ZM11.3334 3.33322H8.66671C7.95289 3.33322 7.46765 3.33387 7.09257 3.36452C6.72723 3.39437 6.54039 3.44847 6.41006 3.51488C6.09645 3.67467 5.84149 3.92964 5.6817 4.24324C5.61529 4.37357 5.56118 4.56041 5.53133 4.92575C5.50069 5.30083 5.50004 5.78607 5.50004 6.49989V13.4999C5.50004 14.2137 5.50069 14.699 5.53133 15.074C5.56118 15.4394 5.61529 15.6262 5.6817 15.7565C5.84149 16.0701 6.09645 16.3251 6.41006 16.4849C6.54039 16.5513 6.72723 16.6054 7.09257 16.6353C7.46765 16.6659 7.95289 16.6666 8.66671 16.6666H12.3334C13.0472 16.6666 13.5324 16.6659 13.9075 16.6353C14.2729 16.6054 14.4597 16.5513 14.59 16.4849C14.9036 16.3251 15.1586 16.0701 15.3184 15.7565C15.3848 15.6262 15.4389 15.4394 15.4687 15.074C15.4994 14.699 15.5 14.2137 15.5 13.4999V7.49989H13.8334C12.4527 7.49989 11.3334 6.3806 11.3334 4.99989V3.33322ZM15.1334 5.83322C15.0332 5.7148 14.8733 5.55164 14.5725 5.25091L13.5824 4.26072C13.2816 3.95998 13.1185 3.80005 13 3.69991V4.99989C13 5.46013 13.3731 5.83322 13.8334 5.83322H15.1334Z" fill="#3440F1"/>
<path d="M13.5892 11.0774C13.7455 11.2337 13.8333 11.4457 13.8333 11.6667C13.8333 11.8877 13.7455 12.0996 13.5892 12.2559L12.7559 13.0893C12.4304 13.4147 11.9028 13.4147 11.5774 13.0893C11.2519 12.7638 11.2519 12.2362 11.5774 11.9107L11.8214 11.6667L11.5774 11.4226C11.2519 11.0972 11.2519 10.5695 11.5774 10.2441C11.9028 9.91864 12.4304 9.91864 12.7559 10.2441L13.5892 11.0774Z" fill="#3440F1"/>
<path d="M7.4107 11.0774C7.25442 11.2337 7.16663 11.4457 7.16663 11.6667C7.16663 11.8877 7.25442 12.0996 7.4107 12.2559L8.24404 13.0893C8.56947 13.4147 9.09711 13.4147 9.42255 13.0893C9.74798 12.7638 9.74799 12.2362 9.42255 11.9107L9.17847 11.6667L9.42255 11.4226C9.74799 11.0972 9.74799 10.5695 9.42255 10.2441C9.09711 9.91864 8.56947 9.91864 8.24404 10.2441L7.4107 11.0774Z" fill="#3440F1"/>
</svg>
