<svg width="21" height="20" viewBox="0 0 21 20" fill="none" xmlns="http://www.w3.org/2000/svg">
<path fill-rule="evenodd" clip-rule="evenodd" d="M11.9941 11.4941C12.3195 11.1686 12.8472 11.1686 13.1726 11.4941L17.7559 16.0774C18.0814 16.4028 18.0814 16.9305 17.7559 17.2559C17.4305 17.5814 16.9028 17.5814 16.5774 17.2559L11.9941 12.6726C11.6686 12.3472 11.6686 11.8195 11.9941 11.4941Z" fill="#3440F1"/>
<path fill-rule="evenodd" clip-rule="evenodd" d="M8.83333 4.16667C6.53215 4.16667 4.66667 6.03215 4.66667 8.33333C4.66667 10.6345 6.53215 12.5 8.83333 12.5C11.1345 12.5 13 10.6345 13 8.33333C13 6.03215 11.1345 4.16667 8.83333 4.16667ZM3 8.33333C3 5.11167 5.61167 2.5 8.83333 2.5C12.055 2.5 14.6667 5.11167 14.6667 8.33333C14.6667 11.555 12.055 14.1667 8.83333 14.1667C5.61167 14.1667 3 11.555 3 8.33333Z" fill="#3440F1"/>
</svg>
