<svg width="33" height="32" viewBox="0 0 33 32" fill="none" xmlns="http://www.w3.org/2000/svg">
<g opacity="0.91">
<path d="M28.1456 11.0114H18.3082C17.8268 11.0114 17.4277 10.6206 17.4277 10.131V5.922C17.4277 5.4406 17.8186 5.0415 18.3082 5.0415H28.5858C28.8327 5.0415 29.0261 5.2349 29.0261 5.4818V10.1392C29.0178 10.6206 28.627 11.0114 28.1456 11.0114Z" fill="#AD83FF"/>
<path d="M25.6854 8.97483H16.5927C16.3212 8.97483 16.1113 8.75273 16.1113 8.49353V3.49043C16.1113 3.21893 16.3335 3.00903 16.5927 3.00903H25.6936C25.9652 3.00903 26.175 3.23123 26.175 3.49043V8.49353C26.1791 8.76503 25.9569 8.97483 25.6854 8.97483Z" fill="#AD83FF"/>
<path d="M31.6803 13.2949H21.0118C20.7567 13.2949 20.5469 13.0933 20.5469 12.8299V7.65411C20.5469 7.39901 20.7485 7.18921 21.0118 7.18921H31.6803C31.9354 7.18921 32.1452 7.39081 32.1452 7.65411V12.8258C32.1493 13.0809 31.9354 13.2949 31.6803 13.2949Z" fill="#AD83FF"/>
<path d="M28.1832 25.0784C25.369 29.0323 20.7486 31.612 15.5275 31.612C6.9532 31.612 0 24.6587 0 16.0844C0 7.8846 6.3608 1.16585 14.4166 0.598074C14.4825 0.598074 14.5442 0.589844 14.61 0.589844C15.1202 0.606304 15.5275 0.988934 15.5275 1.46208V7.0617C10.5368 7.0617 6.4965 11.1061 6.4965 16.0927C6.4965 21.0793 10.5409 25.1237 15.5275 25.1237C20.5141 25.1237 24.5585 21.0793 24.5585 16.0927C24.5585 16.0927 29.6068 18.1786 28.1832 25.0784Z" fill="#925AFF"/>
<path d="M31.013 17.2821C30.9349 16.6114 30.3342 16.093 29.5977 16.093H16.5758C15.9998 16.093 15.5308 15.6281 15.5308 15.048V1.46244C15.5308 0.98929 15.1235 0.60666 14.6133 0.5902C14.6709 0.5902 14.7326 0.58197 14.7902 0.58197C15.4526 0.57374 15.8064 0.84529 15.9011 0.93169L15.9093 0.93992L15.9258 0.95638L29.9104 14.941C31.0953 16.1342 31.013 17.2821 31.013 17.2821Z" fill="#AD83FF"/>
<path d="M31.0058 17.2695C30.9975 17.4423 30.9811 17.6109 30.9646 17.7714C30.6725 20.4745 29.685 22.9718 28.1832 25.0784C29.6068 18.1745 24.5585 16.0927 24.5585 16.0927L29.5945 16.0928C30.3351 16.0928 30.9358 16.6112 31.0058 17.2695Z" fill="url(#paint0_linear_242_115)"/>
</g>
<defs>
<linearGradient id="paint0_linear_242_115" x1="27.7822" y1="25.4329" x2="27.7822" y2="16.132" gradientUnits="userSpaceOnUse">
<stop offset="8.52446e-08" stop-color="#925AFF"/>
<stop offset="1" stop-color="#713BBB"/>
</linearGradient>
</defs>
</svg>
