<svg width="24" height="24" viewBox="0 0 24 24" fill="none" xmlns="http://www.w3.org/2000/svg">
<g id="sort-ascending-2">
<path id="Vector" d="M14 9L17 6M17 6L20 9M17 6V18M5.5 5H9.5C9.77614 5 10 5.22386 10 5.5V9.5C10 9.77614 9.77614 10 9.5 10H5.5C5.22386 10 5 9.77614 5 9.5V5.5C5 5.22386 5.22386 5 5.5 5ZM5.5 14H9.5C9.77614 14 10 14.2239 10 14.5V18.5C10 18.7761 9.77614 19 9.5 19H5.5C5.22386 19 5 18.7761 5 18.5V14.5C5 14.2239 5.22386 14 5.5 14Z" stroke="#A3A096" stroke-width="2" stroke-linecap="round" stroke-linejoin="round"/>
</g>
</svg>
